<svg enable-background="new 0 0 50 50">
	<path d="M45,1H5C2.8,1,1,2.8,1,5v40c0,2.2,1.8,4,4,4h40c2.2,0,4-1.8,4-4V5C49,2.8,47.2,1,45,1z"
		  fill="#F2720C"/>
	<g>
		<path d="M32,25c-1,0-3,2-7,2s-6-2-7-2c-1.1,0-2,0.9-2,2c0,1,0.6,1.5,1,1.7c1.2,0.7,5,2.3,5,2.3l-4.3,5.4   c0,0-0.8,0.9-0.8,1.6c0,1.1,0.9,2,2,2c1,0,1.5-0.7,1.5-0.7S25,34,25,34c0,0,4.5,5.3,4.5,5.3S30,40,31,40c1.1,0,2-0.9,2-2   c0-0.6-0.8-1.6-0.8-1.6L28,31c0,0,3.8-1.6,5-2.3c0.4-0.3,1-0.7,1-1.7C34,25.9,33.1,25,32,25z"
			  fill="#FFFFFF"/>
		<path d="M25,10c-3.9,0-7,3.1-7,7s3.1,7,7,7c3.9,0,7-3.1,7-7S28.9,10,25,10z M25,20.5   c-1.9,0-3.5-1.6-3.5-3.5c0-1.9,1.6-3.5,3.5-3.5c1.9,0,3.5,1.6,3.5,3.5C28.5,18.9,26.9,20.5,25,20.5z"
			  fill="#FFFFFF"/>
	</g>
</svg>